<svg xmlns="http://www.w3.org/2000/svg" version="1.1" xmlns:xlink="http://www.w3.org/1999/xlink" width="512" height="512" x="0" y="0" viewBox="0 0 512 512" style="enable-background:new 0 0 512 512" xml:space="preserve" class=""><g><path d="M122.49 222.98c40.43 0 73.32-32.9 73.32-73.35s-32.89-73.35-73.32-73.35c-40.44 0-73.35 32.9-73.35 73.35s32.9 73.35 73.35 73.35zm0-130.68c31.6 0 57.3 25.72 57.3 57.33s-25.71 57.33-57.3 57.33c-31.61 0-57.33-25.72-57.33-57.33S90.88 92.3 122.49 92.3zm303.16 170.67H383.1c-24.68 0-48.42 10.88-64.77 29.39a74.263 74.263 0 0 0-29.4-6.03h-36.2c-7.16 0-14.09 1.03-20.65 2.93-17.4-30.37-50.09-49.64-85.17-49.64H98.05c-54.07 0-98.06 43.99-98.06 98.06v66.67c0 17.29 14.07 31.37 31.37 31.37h452.33c15.62 0 28.33-12.71 28.33-28.33v-58.05c-.01-47.63-38.75-86.37-86.37-86.37zm-136.71 39.38c9.87 0 19.17 2.46 27.34 6.78.3.19.62.36.94.5 18.11 10 30.41 29.28 30.41 51.38v49.41c0 5.12-4.17 9.28-9.28 9.28h-26.83v-44.89c0-4.42-3.58-8.01-8.01-8.01s-8.01 3.58-8.01 8.01v44.89h-49.29v-44.89c0-4.42-3.58-8.01-8.01-8.01s-8.01 3.58-8.01 8.01v44.89h-26.83c-5.12 0-9.28-4.16-9.28-9.28v-49.41c0-24.62 15.26-45.74 36.81-54.42.02-.01.04-.02.06-.02 6.74-2.71 14.1-4.22 21.8-4.22zM16 404.35v-66.67c0-45.24 36.81-82.05 82.05-82.05h48.87c28.64 0 55.37 15.38 70.19 39.76-23.24 12.67-39.05 37.33-39.05 65.61v49.41c0 3.28.63 6.41 1.77 9.28H86.42v-63.43c0-4.42-3.58-8.01-8.01-8.01s-8.01 3.58-8.01 8.01v63.43H31.35c-8.46.01-15.35-6.88-15.35-15.34zm480 3.03c0 6.79-5.53 12.32-12.32 12.32h-32.92v-54.16c0-4.42-3.58-8.01-8.01-8.01s-8.01 3.58-8.01 8.01v54.16h-72.87a25.16 25.16 0 0 0 1.77-9.28v-49.41c0-24.89-12.25-46.96-31.04-60.53 13.24-13.75 31.21-21.49 50.5-21.49h42.55c38.79 0 70.34 31.56 70.34 70.34v58.05zm-91.63-156.82c35.77 0 64.87-29.1 64.87-64.87s-29.1-64.87-64.87-64.87c-35.75 0-64.84 29.1-64.84 64.87s29.08 64.87 64.84 64.87zm0-113.73c26.94 0 48.85 21.92 48.85 48.85 0 26.94-21.92 48.86-48.85 48.86-26.92 0-48.83-21.92-48.83-48.86 0-26.93 21.9-48.85 48.83-48.85zM270.85 278.14c31.1 0 56.4-25.3 56.4-56.4s-25.3-56.4-56.4-56.4-56.39 25.3-56.39 56.4 25.3 56.4 56.39 56.4zm0-96.78c22.27 0 40.38 18.11 40.38 40.38s-18.11 40.38-40.38 40.38c-22.26 0-40.38-18.11-40.38-40.38 0-22.26 18.12-40.38 40.38-40.38z" fill="#000000" opacity="1" data-original="#000000"></path></g></svg>