<svg width="24" height="24" viewBox="0 0 24 24" fill="none" xmlns="http://www.w3.org/2000/svg">
<path fill-rule="evenodd" clip-rule="evenodd" d="M7 1.75C7.19891 1.75 7.38968 1.82902 7.53033 1.96967C7.67098 2.11032 7.75 2.30109 7.75 2.5V3.263C8.412 3.25 9.141 3.25 9.944 3.25H14.056C14.859 3.25 15.588 3.25 16.25 3.263V2.5C16.25 2.30109 16.329 2.11032 16.4697 1.96967C16.6103 1.82902 16.8011 1.75 17 1.75C17.1989 1.75 17.3897 1.82902 17.5303 1.96967C17.671 2.11032 17.75 2.30109 17.75 2.5V3.327C18.01 3.347 18.256 3.372 18.489 3.403C19.661 3.561 20.61 3.893 21.359 4.641C22.107 5.39 22.439 6.339 22.597 7.511C22.647 7.886 22.681 8.295 22.704 8.741C22.7586 8.88851 22.7653 9.04949 22.723 9.201C22.75 10.002 22.75 10.913 22.75 11.944V14.056C22.75 15.894 22.75 17.35 22.597 18.489C22.439 19.661 22.107 20.61 21.359 21.359C20.61 22.107 19.661 22.439 18.489 22.597C17.349 22.75 15.894 22.75 14.056 22.75H9.944C8.106 22.75 6.65 22.75 5.511 22.597C4.339 22.439 3.39 22.107 2.641 21.359C1.893 20.61 1.561 19.661 1.403 18.489C1.25 17.349 1.25 15.894 1.25 14.056V11.944C1.25 10.913 1.25 10.002 1.277 9.2C1.23527 9.04836 1.24227 8.88744 1.297 8.74C1.319 8.295 1.353 7.886 1.403 7.511C1.561 6.339 1.893 5.39 2.641 4.641C3.39 3.893 4.339 3.561 5.511 3.403C5.744 3.372 5.991 3.347 6.25 3.327V2.5C6.25 2.30109 6.32902 2.11032 6.46967 1.96967C6.61032 1.82902 6.80109 1.75 7 1.75ZM2.763 9.75C2.75 10.403 2.75 11.146 2.75 12V14C2.75 15.907 2.752 17.262 2.89 18.29C3.025 19.295 3.279 19.875 3.702 20.298C4.125 20.721 4.705 20.975 5.711 21.11C6.739 21.248 8.093 21.25 10 21.25H14C15.907 21.25 17.262 21.248 18.29 21.11C19.295 20.975 19.875 20.721 20.298 20.298C20.721 19.875 20.975 19.295 21.11 18.289C21.248 17.262 21.25 15.907 21.25 14V12C21.25 11.146 21.25 10.403 21.237 9.75H2.763ZM21.168 8.25H2.832C2.848 8.06 2.867 7.881 2.89 7.71C3.025 6.705 3.279 6.125 3.702 5.702C4.125 5.279 4.705 5.025 5.711 4.89C6.739 4.752 8.093 4.75 10 4.75H14C15.907 4.75 17.262 4.752 18.29 4.89C19.295 5.025 19.875 5.279 20.298 5.702C20.721 6.125 20.975 6.705 21.11 7.711C21.133 7.881 21.152 8.061 21.168 8.25Z" fill="#545F71" fill-opacity="0.5"/>
</svg>
