<svg width="24" height="24" viewBox="0 0 24 24" fill="none" xmlns="http://www.w3.org/2000/svg">
<path fill-rule="evenodd" clip-rule="evenodd" d="M4.718 3.0913C5.944 1.8003 7.972 2.0413 8.986 3.4753L10.246 5.2593C11.057 6.4063 10.989 7.9993 10.021 9.0193L9.776 9.2763C9.77531 9.27829 9.77464 9.28029 9.774 9.2823C9.761 9.3183 9.729 9.4343 9.761 9.6543C9.828 10.1093 10.179 11.0353 11.607 12.5383C13.039 14.0463 13.907 14.4013 14.31 14.4673C14.4071 14.4891 14.508 14.4867 14.604 14.4603L15.012 14.0303C15.886 13.1103 17.248 12.9293 18.347 13.5613L20.257 14.6613C21.89 15.6013 22.27 17.9003 20.965 19.2743L19.545 20.7693C19.102 21.2363 18.497 21.6353 17.75 21.7093C15.926 21.8893 11.701 21.6543 7.272 16.9903C3.138 12.6393 2.353 8.8543 2.254 7.0053C2.205 6.0913 2.612 5.3083 3.148 4.7433L4.718 3.0913ZM7.761 4.3413C7.249 3.6173 6.328 3.5733 5.805 4.1243L4.235 5.7763C3.905 6.1263 3.73 6.5263 3.752 6.9253C3.832 8.4353 4.483 11.8773 8.359 15.9573C12.423 20.2373 16.168 20.3573 17.603 20.2153C17.886 20.1883 18.178 20.0303 18.457 19.7363L19.877 18.2413C20.491 17.5953 20.33 16.4333 19.509 15.9613L17.599 14.8613C17.086 14.5663 16.485 14.6573 16.1 15.0633L15.644 15.5433L15.117 15.0423C15.644 15.5423 15.644 15.5433 15.643 15.5443L15.642 15.5453L15.639 15.5493L15.632 15.5553L15.618 15.5693C15.576 15.6105 15.5305 15.648 15.482 15.6813C15.402 15.7373 15.296 15.8003 15.161 15.8533C14.885 15.9623 14.521 16.0203 14.07 15.9473C13.192 15.8053 12.042 15.1743 10.52 13.5713C8.992 11.9633 8.407 10.7643 8.277 9.8713C8.21 9.4173 8.263 9.0543 8.361 8.7793C8.4154 8.62605 8.49296 8.48204 8.591 8.3523L8.621 8.3153L8.635 8.3003L8.641 8.2933L8.644 8.2903L8.646 8.2893C8.646 8.2893 8.646 8.2873 9.179 8.7923L8.647 8.2873L8.934 7.9853C9.379 7.5163 9.444 6.7223 9.022 6.1253L7.761 4.3413Z" fill="#017457"/>
<path d="M13.26 1.87963C13.2922 1.68333 13.4009 1.5078 13.5623 1.39157C13.7237 1.27533 13.9246 1.22788 14.121 1.25963C14.146 1.26463 14.228 1.27963 14.271 1.28963C14.356 1.30763 14.475 1.33763 14.623 1.37963C14.92 1.46663 15.335 1.60963 15.833 1.83763C16.829 2.29463 18.154 3.09363 19.53 4.46863C20.906 5.84463 21.705 7.17063 22.162 8.16663C22.39 8.66463 22.532 9.07863 22.619 9.37663C22.6628 9.52636 22.7005 9.67782 22.732 9.83063L22.737 9.86163C22.7699 10.0597 22.7237 10.2627 22.6083 10.427C22.4928 10.5912 22.3175 10.7035 22.12 10.7396C21.9242 10.7714 21.7238 10.7244 21.5626 10.6087C21.4014 10.4931 21.2926 10.3183 21.26 10.1226C21.2395 10.0121 21.2125 9.90292 21.179 9.79563C21.0768 9.4522 20.9498 9.11665 20.799 8.79163C20.409 7.94163 19.707 6.76763 18.469 5.52963C17.232 4.29163 16.057 3.59063 15.207 3.20063C14.8823 3.04985 14.5471 2.92285 14.204 2.82063C14.0988 2.79095 13.9927 2.76427 13.886 2.74063C13.6894 2.70816 13.5134 2.59967 13.3961 2.43858C13.2788 2.27749 13.2296 2.07672 13.259 1.87963H13.26Z" fill="#017457"/>
<path fill-rule="evenodd" clip-rule="evenodd" d="M13.486 5.3299C13.513 5.23513 13.5584 5.14661 13.6195 5.06939C13.6807 4.99217 13.7565 4.92776 13.8426 4.87984C13.9287 4.83192 14.0234 4.80143 14.1213 4.79012C14.2191 4.7788 14.3183 4.78688 14.413 4.8139L14.207 5.5349L14.414 4.8149H14.416L14.42 4.8159L14.427 4.8179L14.447 4.8249C14.5259 4.85132 14.6036 4.88101 14.68 4.9139C14.826 4.9759 15.025 5.0719 15.27 5.2169C15.76 5.5069 16.427 5.9869 17.212 6.7729C17.997 7.5579 18.479 8.2259 18.768 8.7149C18.913 8.9599 19.009 9.1589 19.072 9.3049C19.1049 9.38128 19.1346 9.45902 19.161 9.5379L19.167 9.5579L19.169 9.5659L19.17 9.5689V9.5709L18.45 9.7779L19.171 9.5719C19.227 9.76285 19.2048 9.96822 19.1093 10.1428C19.0139 10.3174 18.853 10.4469 18.662 10.5029C18.4711 10.5589 18.2657 10.5367 18.0911 10.4412C17.9165 10.3458 17.787 10.1849 17.731 9.9939L17.728 9.9839C17.6577 9.80975 17.5741 9.64125 17.478 9.4799C17.254 9.1029 16.852 8.5329 16.152 7.8329C15.452 7.1329 14.882 6.7309 14.506 6.5079C14.3447 6.4118 14.1762 6.32823 14.002 6.2579L13.992 6.2539C13.8029 6.19731 13.6438 6.06847 13.549 5.89532C13.4543 5.72216 13.4317 5.51964 13.486 5.3299Z" fill="#017457"/>
</svg>
