<svg width="24" height="24" viewBox="0 0 24 24" fill="none" xmlns="http://www.w3.org/2000/svg">
<path d="M12 17.75C12.1989 17.75 12.3897 17.671 12.5303 17.5303C12.671 17.3897 12.75 17.1989 12.75 17V11C12.75 10.8011 12.671 10.6103 12.5303 10.4697C12.3897 10.329 12.1989 10.25 12 10.25C11.8011 10.25 11.6103 10.329 11.4697 10.4697C11.329 10.6103 11.25 10.8011 11.25 11V17C11.25 17.414 11.586 17.75 12 17.75ZM12 7C12.2652 7 12.5196 7.10536 12.7071 7.29289C12.8946 7.48043 13 7.73478 13 8C13 8.26522 12.8946 8.51957 12.7071 8.70711C12.5196 8.89464 12.2652 9 12 9C11.7348 9 11.4804 8.89464 11.2929 8.70711C11.1054 8.51957 11 8.26522 11 8C11 7.73478 11.1054 7.48043 11.2929 7.29289C11.4804 7.10536 11.7348 7 12 7Z" fill="#017457"/>
<path fill-rule="evenodd" clip-rule="evenodd" d="M1.25 12C1.25 6.063 6.063 1.25 12 1.25C17.937 1.25 22.75 6.063 22.75 12C22.75 17.937 17.937 22.75 12 22.75C6.063 22.75 1.25 17.937 1.25 12ZM12 2.75C9.54675 2.75 7.19397 3.72455 5.45926 5.45926C3.72455 7.19397 2.75 9.54675 2.75 12C2.75 14.4533 3.72455 16.806 5.45926 18.5407C7.19397 20.2754 9.54675 21.25 12 21.25C14.4533 21.25 16.806 20.2754 18.5407 18.5407C20.2754 16.806 21.25 14.4533 21.25 12C21.25 9.54675 20.2754 7.19397 18.5407 5.45926C16.806 3.72455 14.4533 2.75 12 2.75Z" fill="#017457"/>
</svg>
