<svg width="24" height="24" viewBox="0 0 24 24" fill="none" xmlns="http://www.w3.org/2000/svg">
<path fill-rule="evenodd" clip-rule="evenodd" d="M5.11701 7.75176C5.31537 7.73858 5.51085 7.80471 5.66048 7.93559C5.81012 8.06647 5.90167 8.25141 5.91501 8.44976L6.37501 15.3498C6.46501 16.6968 6.52901 17.6348 6.66901 18.3398C6.80601 19.0248 6.99601 19.3868 7.26901 19.6428C7.54301 19.8988 7.91701 20.0648 8.60901 20.1548C9.32301 20.2478 10.263 20.2498 11.613 20.2498H12.387C13.737 20.2498 14.677 20.2478 15.391 20.1548C16.083 20.0648 16.457 19.8988 16.731 19.6428C17.004 19.3868 17.194 19.0248 17.331 18.3408C17.471 17.6348 17.535 16.6968 17.625 15.3488L18.085 8.44976C18.0916 8.35146 18.1174 8.25542 18.1611 8.16712C18.2048 8.07883 18.2655 7.99999 18.3396 7.93513C18.4137 7.87027 18.4999 7.82065 18.5933 7.7891C18.6866 7.75755 18.7852 7.74469 18.8835 7.75126C18.9818 7.75782 19.0778 7.78369 19.1661 7.82737C19.2544 7.87105 19.3333 7.9317 19.3981 8.00584C19.463 8.07999 19.5126 8.16619 19.5442 8.25951C19.5757 8.35284 19.5886 8.45146 19.582 8.54976L19.118 15.5018C19.033 16.7838 18.964 17.8208 18.802 18.6338C18.633 19.4788 18.347 20.1848 17.755 20.7378C17.164 21.2918 16.44 21.5308 15.585 21.6418C14.763 21.7498 13.725 21.7498 12.439 21.7498H11.561C10.275 21.7498 9.23701 21.7498 8.41501 21.6418C7.56001 21.5308 6.83601 21.2918 6.24501 20.7378C5.65301 20.1848 5.36701 19.4778 5.19801 18.6338C5.03601 17.8198 4.96801 16.7838 4.88201 15.5018L4.41801 8.54976C4.41149 8.45146 4.4244 8.35284 4.45601 8.25953C4.48761 8.16622 4.53729 8.08006 4.6022 8.00595C4.66711 7.93185 4.74598 7.87126 4.83432 7.82764C4.92265 7.78403 5.01871 7.75824 5.11701 7.75176ZM10.355 2.24976H10.309C10.093 2.24976 9.90401 2.24976 9.72601 2.27776C9.3793 2.3333 9.0504 2.46922 8.76562 2.67464C8.48085 2.88006 8.24811 3.14928 8.08601 3.46076C8.00201 3.62076 7.94301 3.79976 7.87501 4.00476L7.86001 4.04876L7.76301 4.33876C7.68643 4.61092 7.51985 4.84908 7.29046 5.01436C7.06107 5.17964 6.78242 5.26227 6.50001 5.24876H3.50001C3.30097 5.24876 3.11007 5.32783 2.96933 5.46857C2.82858 5.60932 2.74951 5.80021 2.74951 5.99926C2.74951 6.1983 2.82858 6.38919 2.96933 6.52994C3.11007 6.67069 3.30097 6.74976 3.50001 6.74976H20.501C20.6999 6.74976 20.8907 6.67074 21.0313 6.53009C21.172 6.38943 21.251 6.19867 21.251 5.99976C21.251 5.80084 21.172 5.61008 21.0313 5.46943C20.8907 5.32877 20.6999 5.24976 20.501 5.24976H17.41C17.1429 5.24335 16.8849 5.15153 16.6738 4.98776C16.4627 4.82399 16.3096 4.59688 16.237 4.33976L16.14 4.04876L16.126 4.00476C16.057 3.79976 15.998 3.62076 15.915 3.46076C15.7528 3.14916 15.5199 2.87986 15.235 2.67443C14.95 2.469 14.6209 2.33315 14.274 2.27776C14.0807 2.25322 13.8858 2.24386 13.691 2.24976H10.355ZM9.14501 4.93476C9.10501 5.04376 9.06001 5.14876 9.00801 5.24976H14.992C14.9402 5.148 14.8948 5.04313 14.856 4.93576L14.816 4.82176L14.717 4.52176C14.6804 4.39642 14.636 4.27351 14.584 4.15376C14.53 4.04976 14.4524 3.95987 14.3574 3.89127C14.2624 3.82268 14.1527 3.77729 14.037 3.75876C13.9067 3.74752 13.7757 3.74452 13.645 3.74976H10.355C10.067 3.74976 10.007 3.75176 9.96301 3.75976C9.84741 3.77819 9.73773 3.82342 9.64275 3.89184C9.54777 3.96025 9.47012 4.04995 9.41601 4.15376C9.39601 4.19376 9.37401 4.24876 9.28301 4.52276L9.18301 4.82276L9.14501 4.93476Z" fill="#D04545"/>
</svg>
