<svg width="34" height="34" viewBox="0 0 34 34" fill="none" xmlns="http://www.w3.org/2000/svg">
<g clip-path="url(#clip0_46_872)">
<path d="M33.999 12.8853C34.0002 12.7183 33.9556 12.5513 33.8626 12.4055L28.2746 3.63661C28.2721 3.63255 28.269 3.62903 28.2664 3.62505C28.2643 3.62186 28.2629 3.61841 28.2607 3.61536C28.2564 3.60885 28.251 3.6032 28.2464 3.59683C28.233 3.57817 28.2191 3.55997 28.2046 3.54264C28.1974 3.53421 28.1902 3.52591 28.1827 3.51767C28.1662 3.49941 28.149 3.48214 28.1312 3.46561C28.1248 3.4597 28.1188 3.45359 28.1123 3.44801C28.0618 3.40365 28.0071 3.36567 27.9491 3.33459C27.9424 3.33107 27.9357 3.32808 27.929 3.3247C27.9066 3.31341 27.8837 3.30291 27.8606 3.29362C27.8508 3.28963 27.8409 3.28605 27.831 3.28239C27.8092 3.27456 27.7872 3.26765 27.7649 3.26148C27.7552 3.25882 27.7456 3.2559 27.7358 3.25357C27.7044 3.24607 27.6728 3.23989 27.6409 3.23584C27.6406 3.23584 27.6403 3.23578 27.6399 3.23564C27.6066 3.23153 27.573 3.22973 27.5394 3.22947C27.5367 3.22947 27.5342 3.229 27.5315 3.229H17H6.46859C6.17654 3.229 5.90341 3.3737 5.73939 3.61536C5.57536 3.85707 5.5417 4.16434 5.64961 4.4358L8.65482 11.9978H2.48741L4.43397 8.94306C4.69555 8.53254 4.57489 7.98781 4.16436 7.72623C3.75384 7.46466 3.20918 7.58525 2.94754 7.99584L0.137422 12.4056C0.0442541 12.5516 -0.000304459 12.7188 0.00102367 12.8861C-0.00973415 13.1176 0.0696213 13.353 0.241813 13.5343L16.3611 30.4971C16.3659 30.5022 16.3712 30.5064 16.376 30.5112C16.3811 30.5163 16.3856 30.5219 16.3908 30.5269C16.3973 30.5331 16.4043 30.5384 16.4109 30.5444C16.4216 30.554 16.4323 30.5634 16.4433 30.5724C16.4554 30.5823 16.4678 30.5917 16.4804 30.6009C16.4917 30.6092 16.503 30.6173 16.5146 30.625C16.5278 30.6337 16.5413 30.6418 16.5548 30.6497C16.5663 30.6564 16.5776 30.6633 16.5893 30.6695C16.6038 30.6771 16.6186 30.6839 16.6334 30.6907C16.6447 30.6959 16.6558 30.7013 16.6673 30.706C16.6833 30.7125 16.6995 30.7179 16.7157 30.7235C16.7265 30.7272 16.7371 30.7313 16.7481 30.7345C16.7657 30.7398 16.7836 30.7438 16.8015 30.748C16.8112 30.7503 16.8209 30.753 16.8309 30.7549C16.8509 30.7588 16.871 30.7614 16.8912 30.7639C16.8992 30.7649 16.9073 30.7664 16.9152 30.7672C16.9434 30.7699 16.9717 30.7715 17 30.7715H17.0002C17.0284 30.7715 17.0565 30.7699 17.0847 30.7673C17.0926 30.7665 17.1006 30.765 17.1085 30.764C17.1286 30.7616 17.1486 30.759 17.1686 30.7551C17.1785 30.7532 17.1883 30.7505 17.1982 30.7482C17.2159 30.7441 17.2336 30.7401 17.251 30.7349C17.262 30.7316 17.2727 30.7276 17.2834 30.7239C17.2995 30.7185 17.3155 30.7131 17.3313 30.7066C17.3429 30.702 17.3542 30.6965 17.3655 30.6914C17.3801 30.6847 17.3947 30.6781 17.4091 30.6705C17.4209 30.6643 17.4323 30.6574 17.4439 30.6507C17.4573 30.6429 17.4706 30.6351 17.4837 30.6264C17.4953 30.6188 17.5066 30.6106 17.5179 30.6024C17.5304 30.5933 17.5428 30.5841 17.5549 30.5742C17.5659 30.5653 17.5764 30.556 17.587 30.5466C17.5936 30.5407 17.6007 30.5354 17.6072 30.5293C17.6125 30.5242 17.6171 30.5187 17.6222 30.5135C17.627 30.5086 17.6322 30.5045 17.637 30.4995L25.7483 22.0181C26.0847 21.6664 26.0723 21.1085 25.7205 20.772C25.3687 20.4355 24.8108 20.4481 24.4744 20.7998L19.5708 25.9271L24.8384 13.7608H31.1205L28.6979 16.3266C28.3637 16.6805 28.3797 17.2383 28.7337 17.5724C28.9039 17.7333 29.1215 17.8129 29.3385 17.8129C29.5726 17.8129 29.8061 17.7203 29.9795 17.5366L33.7602 13.5324C33.9313 13.3508 34.01 13.116 33.999 12.8853ZM17 5.51484L22.2245 11.9978H11.7754L17 5.51484ZM9.1617 13.7605L14.4121 25.8873L2.88837 13.7605H9.1617ZM27.714 6.03699L31.5126 11.9979H25.3452L27.714 6.03699ZM26.2327 4.99162L23.8035 11.1042L18.8488 4.99162H26.2327ZM15.1511 4.99162L10.1965 11.1042L7.7673 4.99162H15.1511ZM17 27.428L11.1033 13.8084H22.8967L17 27.428Z" fill="#A2C0EC"/>
</g>
<defs>
<clipPath id="clip0_46_872">
<rect width="34" height="34" fill="white"/>
</clipPath>
</defs>
</svg>
