<svg width="24" height="24" viewBox="0 0 24 24" fill="none" xmlns="http://www.w3.org/2000/svg">
<path fill-rule="evenodd" clip-rule="evenodd" d="M4.43005 8.51193C4.49418 8.43711 4.57242 8.37566 4.66031 8.33109C4.7482 8.28652 4.84401 8.25971 4.94227 8.25219C5.04052 8.24467 5.1393 8.25658 5.23295 8.28725C5.3266 8.31792 5.41328 8.36675 5.48805 8.43093L12.0001 14.0119L18.5121 8.43093C18.6639 8.30906 18.8571 8.25101 19.051 8.26904C19.2449 8.28707 19.4241 8.37977 19.5508 8.52756C19.6776 8.67534 19.7419 8.86662 19.7302 9.06095C19.7185 9.25529 19.6316 9.43745 19.4881 9.56894L12.4881 15.5689C12.3521 15.6854 12.179 15.7494 12.0001 15.7494C11.8211 15.7494 11.648 15.6854 11.5121 15.5689L4.51205 9.56894C4.36124 9.43945 4.26799 9.25539 4.2528 9.0572C4.23762 8.859 4.30173 8.66289 4.43105 8.51193H4.43005Z" fill="#545F71" fill-opacity="0.5"/>
</svg>
