<svg width="24" height="24" viewBox="0 0 24 24" fill="none" xmlns="http://www.w3.org/2000/svg">
<path d="M2 12C2 8.229 2 6.343 3.172 5.172C4.343 4 6.229 4 10 4H14C17.771 4 19.657 4 20.828 5.172C22 6.343 22 8.229 22 12C22 15.771 22 17.657 20.828 18.828C19.657 20 17.771 20 14 20H10C6.229 20 4.343 20 3.172 18.828C2 17.657 2 15.771 2 12Z" stroke="#545F71" stroke-opacity="0.5" stroke-width="1.5"/>
<path d="M6 8L8.159 9.8C9.996 11.33 10.914 12.095 12 12.095C13.086 12.095 14.005 11.33 15.841 9.799L18 8" stroke="#545F71" stroke-opacity="0.5" stroke-width="1.5" stroke-linecap="round"/>
</svg>
