<svg width="24" height="24" viewBox="0 0 24 24" fill="none" xmlns="http://www.w3.org/2000/svg">
<path d="M9 17.25C8.80109 17.25 8.61032 17.329 8.46967 17.4697C8.32902 17.6103 8.25 17.8011 8.25 18C8.25 18.1989 8.32902 18.3897 8.46967 18.5303C8.61032 18.671 8.80109 18.75 9 18.75H15C15.1989 18.75 15.3897 18.671 15.5303 18.5303C15.671 18.3897 15.75 18.1989 15.75 18C15.75 17.8011 15.671 17.6103 15.5303 17.4697C15.3897 17.329 15.1989 17.25 15 17.25H9Z" fill="#545F71"/>
<path fill-rule="evenodd" clip-rule="evenodd" d="M12 1.25C11.275 1.25 10.613 1.45 9.89001 1.787C9.18801 2.114 8.37801 2.597 7.36201 3.202L5.90601 4.069C4.78701 4.736 3.89601 5.267 3.22001 5.775C2.52301 6.3 2.00001 6.84 1.66001 7.551C1.31801 8.262 1.22601 9.007 1.25501 9.876C1.28401 10.717 1.43101 11.74 1.61501 13.022L1.90801 15.054C2.14501 16.704 2.33401 18.013 2.61501 19.032C2.90501 20.082 3.31701 20.917 4.06001 21.556C4.80201 22.196 5.69001 22.481 6.77601 22.618C7.83201 22.75 9.16301 22.75 10.842 22.75H13.158C14.838 22.75 16.168 22.75 17.224 22.618C18.31 22.481 19.198 22.196 19.94 21.557C20.683 20.917 21.095 20.083 21.385 19.032C21.666 18.012 21.855 16.704 22.092 15.054L22.384 13.022C22.569 11.74 22.716 10.717 22.744 9.876C22.774 9.006 22.682 8.262 22.341 7.551C22 6.84 21.477 6.3 20.78 5.775C20.105 5.267 19.213 4.736 18.094 4.069L16.638 3.202C15.622 2.597 14.812 2.114 14.111 1.787C13.387 1.449 12.725 1.25 12 1.25ZM8.09601 4.511C9.15301 3.881 9.89901 3.438 10.524 3.146C11.133 2.862 11.571 2.75 12 2.75C12.43 2.75 12.867 2.862 13.476 3.146C14.101 3.438 14.846 3.881 15.904 4.511L17.289 5.336C18.454 6.03 19.275 6.52 19.879 6.974C20.466 7.417 20.789 7.783 20.989 8.199C21.188 8.615 21.271 9.093 21.246 9.825C21.22 10.575 21.086 11.516 20.894 12.851L20.614 14.788C20.368 16.502 20.192 17.716 19.939 18.633C19.692 19.529 19.394 20.048 18.962 20.42C18.529 20.793 17.968 21.013 17.037 21.13C16.086 21.249 14.849 21.25 13.107 21.25H10.894C9.15101 21.25 7.91401 21.249 6.96301 21.13C6.03301 21.013 5.47101 20.793 5.03801 20.42C4.60601 20.048 4.30801 19.529 4.06101 18.633C3.80801 17.716 3.63101 16.502 3.38501 14.788L3.10601 12.851C2.91401 11.516 2.78001 10.574 2.75401 9.825C2.72901 9.093 2.81201 8.615 3.01201 8.199C3.21201 7.783 3.53301 7.417 4.12201 6.974C4.72501 6.52 5.54601 6.03 6.71101 5.336L8.09601 4.511Z" fill="#545F71"/>
</svg>
