<svg width="24" height="24" viewBox="0 0 24 24" fill="none" xmlns="http://www.w3.org/2000/svg">
<path fill-rule="evenodd" clip-rule="evenodd" d="M22.2949 6.31035C22.3856 6.34914 22.4677 6.40543 22.5366 6.476C22.6055 6.54657 22.6598 6.63004 22.6964 6.72163C22.733 6.81321 22.7512 6.91112 22.7499 7.00974C22.7486 7.10836 22.7279 7.20575 22.6889 7.29635L21.9999 7.00035L22.6899 7.29635L22.6879 7.30035L22.6849 7.30735L22.6749 7.33135L22.6359 7.41535C22.4177 7.86855 22.175 8.30954 21.9089 8.73635C21.3754 9.59427 20.757 10.3963 20.0629 11.1304L21.0309 12.0994C21.1634 12.2415 21.2355 12.4296 21.232 12.6239C21.2286 12.8182 21.1499 13.0036 21.0125 13.141C20.8751 13.2784 20.6897 13.3571 20.4954 13.3605C20.3011 13.364 20.1131 13.2918 19.9709 13.1594L18.9699 12.1594C18.2736 12.7463 17.5102 13.2488 16.6959 13.6564L17.6299 15.0914C17.7383 15.2582 17.7761 15.4613 17.7349 15.6559C17.6936 15.8506 17.5767 16.0209 17.4099 16.1294C17.2431 16.2378 17.04 16.2756 16.8453 16.2343C16.6506 16.1931 16.4803 16.0762 16.3719 15.9094L15.2829 14.2354C14.5029 14.4903 13.6599 14.6634 12.7509 14.7254V16.5004C12.7509 16.6993 12.6719 16.89 12.5312 17.0307C12.3906 17.1713 12.1998 17.2504 12.0009 17.2504C11.802 17.2504 11.6112 17.1713 11.4705 17.0307C11.3299 16.89 11.2509 16.6993 11.2509 16.5004V14.7254C10.4152 14.6691 9.58926 14.5126 8.79087 14.2594L7.71687 15.9094C7.66316 15.992 7.59371 16.0632 7.51248 16.1189C7.43124 16.1747 7.33983 16.2139 7.24344 16.2343C7.14705 16.2548 7.04758 16.256 6.95072 16.238C6.85385 16.22 6.76148 16.1831 6.67887 16.1294C6.51205 16.0209 6.39515 15.8506 6.3539 15.6559C6.33347 15.5595 6.33222 15.4601 6.35024 15.3632C6.36825 15.2663 6.40516 15.174 6.45887 15.0914L7.37187 13.6894C6.55101 13.2856 5.78124 12.7854 5.07887 12.1994L4.11887 13.1594C3.97749 13.296 3.78807 13.3717 3.59142 13.3701C3.39477 13.3685 3.20662 13.2897 3.0675 13.1507C2.92838 13.0117 2.84942 12.8236 2.84761 12.627C2.84581 12.4304 2.92132 12.2409 3.05787 12.0994L3.98187 11.1754C2.99986 10.1463 2.1689 8.983 1.51387 7.72035C1.44829 7.59245 1.38561 7.46309 1.32587 7.33235L1.31587 7.30735L1.31187 7.30035V7.29735H1.30987C1.23137 7.11448 1.22872 6.90692 1.30252 6.7221C1.37632 6.53729 1.52051 6.38935 1.70337 6.31085C1.88624 6.23235 2.0928 6.2297 2.27762 6.3035C2.46244 6.37729 2.61037 6.52148 2.68887 6.70435V6.70635L2.69587 6.72035L2.72487 6.78335C2.92008 7.18716 3.13706 7.58007 3.37487 7.96035C3.84987 8.72035 4.57187 9.70735 5.55487 10.6224C6.42187 11.4274 7.48287 12.1684 8.75187 12.6564C9.78846 13.0536 10.8898 13.255 11.9999 13.2504C13.1331 13.2552 14.2569 13.0452 15.3119 12.6314C16.5739 12.1343 17.6279 11.3884 18.4869 10.5824C19.6353 9.4918 20.5798 8.20494 21.2759 6.78235L21.3039 6.71935L21.3099 6.70635M22.2949 6.31035C22.1121 6.23225 21.9058 6.23088 21.7214 6.30475C21.5369 6.37862 21.3892 6.52271 21.3109 6.70535L22.2949 6.31035Z" fill="#545F71" fill-opacity="0.5"/>
</svg>
