<svg width="24" height="24" viewBox="0 0 24 24" fill="none" xmlns="http://www.w3.org/2000/svg">
<path d="M21.6091 13.562L21.8391 11.126C22.0191 9.214 22.1091 8.257 21.7811 7.862C21.6986 7.75902 21.5964 7.67351 21.4805 7.6105C21.3646 7.54748 21.2373 7.50822 21.1061 7.495C20.6301 7.453 20.0331 8.133 18.8381 9.493C18.2201 10.197 17.9111 10.548 17.5671 10.603C17.3749 10.6329 17.1782 10.6015 17.0051 10.513C16.6861 10.353 16.4751 9.918 16.0501 9.049L13.8131 4.465C13.0111 2.822 12.6101 2 12.0001 2C11.3901 2 10.9891 2.822 10.1871 4.465L7.95007 9.049C7.52607 9.919 7.31407 10.353 6.99507 10.513C6.82185 10.6013 6.62521 10.6328 6.43307 10.603C6.08907 10.548 5.78007 10.197 5.16207 9.493C3.96707 8.133 3.37007 7.453 2.89407 7.495C2.76281 7.50822 2.6355 7.54748 2.5196 7.6105C2.40369 7.67351 2.30152 7.75902 2.21907 7.862C1.89207 8.257 1.98207 9.214 2.16207 11.126L2.39107 13.562C2.76907 17.574 2.95707 19.581 4.14107 20.79C5.32207 22 7.09407 22 10.6401 22H13.3591C16.9041 22 18.6761 22 19.8591 20.79C21.0421 19.58 21.2311 17.574 21.6091 13.562Z" stroke="#017457" stroke-width="1.5"/>
<path d="M11.146 12.523C11.526 11.841 11.716 11.5 12 11.5C12.284 11.5 12.474 11.84 12.854 12.523L12.952 12.699C13.06 12.893 13.114 12.989 13.198 13.053C13.283 13.117 13.388 13.141 13.598 13.188L13.788 13.232C14.526 13.399 14.895 13.482 14.983 13.764C15.071 14.047 14.819 14.341 14.316 14.929L14.186 15.081C14.043 15.248 13.971 15.331 13.939 15.435C13.907 15.539 13.918 15.65 13.939 15.873L13.959 16.076C14.035 16.861 14.073 17.254 13.844 17.428C13.614 17.602 13.268 17.443 12.577 17.125L12.399 17.043C12.202 16.953 12.104 16.907 12 16.907C11.896 16.907 11.798 16.953 11.601 17.043L11.423 17.125C10.732 17.444 10.386 17.602 10.156 17.428C9.92604 17.254 9.96504 16.861 10.041 16.076L10.061 15.873C10.082 15.65 10.093 15.539 10.061 15.435C10.029 15.332 9.95704 15.248 9.81404 15.081L9.68404 14.929C9.18104 14.341 8.92904 14.047 9.01704 13.764C9.10504 13.482 9.47404 13.399 10.212 13.232L10.402 13.188C10.612 13.141 10.717 13.118 10.802 13.053C10.886 12.989 10.94 12.893 11.048 12.699L11.146 12.523Z" stroke="#017457" stroke-width="1.5"/>
</svg>
