<svg width="24" height="24" viewBox="0 0 24 24" fill="none" xmlns="http://www.w3.org/2000/svg">
<path fill-rule="evenodd" clip-rule="evenodd" d="M11.944 1.25H12.056C13.894 1.25 15.35 1.25 16.489 1.403C17.661 1.561 18.61 1.893 19.359 2.641C20.107 3.39 20.439 4.339 20.597 5.511C20.75 6.651 20.75 8.106 20.75 9.944V14.056C20.75 15.894 20.75 17.35 20.597 18.489C20.439 19.661 20.107 20.61 19.359 21.359C18.61 22.107 17.661 22.439 16.489 22.597C15.349 22.75 13.894 22.75 12.056 22.75H11.944C10.106 22.75 8.65 22.75 7.511 22.597C6.339 22.439 5.39 22.107 4.641 21.359C3.893 20.61 3.561 19.661 3.403 18.489C3.25 17.349 3.25 15.894 3.25 14.056V9.944C3.25 8.106 3.25 6.65 3.403 5.511C3.561 4.339 3.893 3.39 4.641 2.641C5.39 1.893 6.339 1.561 7.511 1.403C8.651 1.25 10.106 1.25 11.944 1.25ZM7.71 2.89C6.704 3.025 6.124 3.279 5.7 3.702C5.278 4.125 5.024 4.705 4.889 5.711C4.751 6.739 4.749 8.093 4.749 10V14C4.749 15.907 4.751 17.262 4.889 18.29C5.024 19.295 5.278 19.875 5.701 20.298C6.124 20.721 6.704 20.975 7.71 21.11C8.738 21.248 10.092 21.25 11.999 21.25C13.906 21.25 15.26 21.248 16.289 21.11C17.294 20.975 17.874 20.721 18.297 20.298C18.72 19.875 18.974 19.295 19.109 18.289C19.247 17.262 19.249 15.907 19.249 14V10C19.249 8.093 19.247 6.739 19.109 5.71C18.974 4.705 18.72 4.125 18.297 3.702C17.874 3.279 17.294 3.025 16.288 2.89C15.26 2.752 13.906 2.75 11.999 2.75C10.092 2.75 8.739 2.752 7.71 2.89ZM8.25 19C8.25 18.8011 8.32902 18.6103 8.46967 18.4697C8.61032 18.329 8.80109 18.25 9 18.25H15C15.1989 18.25 15.3897 18.329 15.5303 18.4697C15.671 18.6103 15.75 18.8011 15.75 19C15.75 19.1989 15.671 19.3897 15.5303 19.5303C15.3897 19.671 15.1989 19.75 15 19.75H9C8.80109 19.75 8.61032 19.671 8.46967 19.5303C8.32902 19.3897 8.25 19.1989 8.25 19Z" fill="#545F71" fill-opacity="0.5"/>
</svg>
