<svg width="24" height="24" viewBox="0 0 24 24" fill="none" xmlns="http://www.w3.org/2000/svg">
<path d="M18.181 8.04011L18.6439 7.57611C19.0126 7.20733 19.5127 7.00009 20.0341 7C20.5555 6.99991 21.0557 7.20696 21.4245 7.57561C21.7932 7.94426 22.0005 8.44431 22.0006 8.96576C22.0007 9.4872 21.7936 9.98733 21.425 10.3561L20.962 10.8201M18.181 8.04011C18.181 8.04011 18.239 9.02411 19.108 9.89311C19.977 10.7621 20.962 10.8201 20.962 10.8201M18.181 8.04011L13.921 12.3001C13.631 12.5881 13.487 12.7331 13.363 12.8921C13.217 13.0801 13.092 13.2821 12.989 13.4981C12.902 13.6801 12.838 13.8731 12.709 14.2601L12.296 15.5001L12.162 15.9011M20.962 10.8201L16.702 15.0801C16.412 15.3701 16.268 15.5141 16.109 15.6381C15.921 15.7841 15.719 15.9091 15.503 16.0121C15.321 16.0991 15.128 16.1631 14.741 16.2921L13.501 16.7051L13.1 16.8391M12.162 15.9011L12.029 16.3031C11.998 16.3964 11.9936 16.4965 12.0162 16.5922C12.0389 16.6879 12.0877 16.7754 12.1572 16.8449C12.2267 16.9144 12.3142 16.9632 12.4099 16.9859C12.5055 17.0085 12.6056 17.0041 12.699 16.9731L13.1 16.8391M12.162 15.9011L13.1 16.8391" stroke="#F3C95B" stroke-width="1.5"/>
<path d="M8 13H10.5M8 9H14.5M8 17H9.5" stroke="#F3C95B" stroke-width="1.5" stroke-linecap="round"/>
<path opacity="0.5" d="M3 10C3 6.229 3 4.343 4.172 3.172C5.343 2 7.229 2 11 2H13C16.771 2 18.657 2 19.828 3.172C21 4.343 21 6.229 21 10V14C21 17.771 21 19.657 19.828 20.828C18.657 22 16.771 22 13 22H11C7.229 22 5.343 22 4.172 20.828C3 19.657 3 17.771 3 14V10Z" stroke="#F3C95B" stroke-width="1.5"/>
</svg>
