<svg width="24" height="24" viewBox="0 0 24 24" fill="none" xmlns="http://www.w3.org/2000/svg">
<path fill-rule="evenodd" clip-rule="evenodd" d="M7.94502 1.25H16.055C17.422 1.25 18.525 1.25 19.392 1.367C20.292 1.487 21.05 1.747 21.652 2.348C22.254 2.95 22.512 3.708 22.634 4.608C22.75 5.475 22.75 6.578 22.75 7.945V12.055C22.75 13.422 22.75 14.525 22.634 15.392C22.512 16.292 22.254 17.05 21.652 17.652C21.154 18.15 20.547 18.415 19.836 18.559C19.146 18.699 18.313 18.735 17.328 18.746H17.098C16.9986 19.058 16.8378 19.347 16.625 19.596C16.4942 19.7497 16.4151 19.9408 16.399 20.142C16.3526 20.7251 16.0999 21.2726 15.6863 21.6862C15.2726 22.0999 14.7251 22.3526 14.142 22.399C13.9408 22.4151 13.7497 22.4941 13.596 22.625C13.1509 23.0045 12.585 23.213 12 23.213C11.415 23.213 10.8492 23.0045 10.404 22.625C10.2503 22.4941 10.0593 22.4151 9.85802 22.399C9.27473 22.3528 8.727 22.1002 8.31316 21.6865C7.89932 21.2729 7.64648 20.7253 7.60002 20.142C7.58397 19.9408 7.50489 19.7497 7.37402 19.596C7.16181 19.3476 7.00134 19.0593 6.90202 18.748C5.86202 18.741 4.99102 18.712 4.27502 18.581C3.51702 18.441 2.87202 18.177 2.34702 17.651C1.74502 17.05 1.48702 16.291 1.36602 15.391C1.24902 14.525 1.24902 13.422 1.24902 12.055V7.945C1.24902 6.578 1.24902 5.475 1.36602 4.608C1.48602 3.708 1.74602 2.95 2.34702 2.348C2.94902 1.746 3.70702 1.488 4.60702 1.367C5.47402 1.25 6.57702 1.25 7.94402 1.25H7.94502ZM6.90502 17.248C7.00102 16.946 7.15802 16.658 7.37502 16.404C7.50589 16.2503 7.58497 16.0592 7.60102 15.858C7.64722 15.2747 7.89982 14.727 8.31348 14.3131C8.72713 13.8993 9.27475 13.6465 9.85802 13.6C10.0594 13.5837 10.2504 13.5042 10.404 13.373C10.8492 12.9935 11.415 12.785 12 12.785C12.585 12.785 13.1509 12.9935 13.596 13.373C13.7496 13.5042 13.9407 13.5837 14.142 13.6C14.7251 13.6464 15.2726 13.8991 15.6863 14.3128C16.0999 14.7264 16.3526 15.2739 16.399 15.857C16.4151 16.0582 16.4942 16.2493 16.625 16.403C16.842 16.657 16.998 16.943 17.095 17.245H17.315C18.3 17.235 19.002 17.197 19.537 17.089C20.051 16.984 20.359 16.822 20.591 16.59C20.868 16.313 21.048 15.925 21.147 15.19C21.248 14.435 21.25 13.434 21.25 11.999V8C21.25 6.565 21.248 5.563 21.147 4.808C21.048 4.074 20.867 3.686 20.591 3.409C20.314 3.132 19.926 2.952 19.191 2.853C18.436 2.752 17.435 2.75 16 2.75H8.00002C6.56502 2.75 5.56302 2.752 4.80802 2.853C4.07402 2.952 3.68602 3.133 3.40902 3.409C3.13202 3.686 2.95202 4.074 2.85302 4.809C2.75202 5.562 2.75002 6.564 2.75002 8V12C2.75002 13.435 2.75202 14.437 2.85302 15.192C2.95202 15.926 3.13302 16.314 3.40902 16.591C3.65202 16.834 3.98102 17.001 4.54702 17.106C5.11702 17.21 5.86302 17.24 6.90402 17.248H6.90502ZM8.25002 6C8.25002 5.80109 8.32904 5.61032 8.46969 5.46967C8.61035 5.32902 8.80111 5.25 9.00002 5.25H15C15.1989 5.25 15.3897 5.32902 15.5304 5.46967C15.671 5.61032 15.75 5.80109 15.75 6C15.75 6.19891 15.671 6.38968 15.5304 6.53033C15.3897 6.67098 15.1989 6.75 15 6.75H9.00002C8.80111 6.75 8.61035 6.67098 8.46969 6.53033C8.32904 6.38968 8.25002 6.19891 8.25002 6ZM6.25002 9.5C6.25002 9.30109 6.32904 9.11032 6.46969 8.96967C6.61035 8.82902 6.80111 8.75 7.00002 8.75H17C17.1989 8.75 17.3897 8.82902 17.5304 8.96967C17.671 9.11032 17.75 9.30109 17.75 9.5C17.75 9.69891 17.671 9.88968 17.5304 10.0303C17.3897 10.171 17.1989 10.25 17 10.25H7.00002C6.80111 10.25 6.61035 10.171 6.46969 10.0303C6.32904 9.88968 6.25002 9.69891 6.25002 9.5ZM12.623 14.516C12.4493 14.3678 12.2284 14.2864 12 14.2864C11.7717 14.2864 11.5508 14.3678 11.377 14.516C10.983 14.8518 10.4931 15.0548 9.97702 15.096C9.74957 15.1143 9.53607 15.213 9.37481 15.3745C9.21355 15.5359 9.11507 15.7495 9.09702 15.977C9.05582 16.4931 8.85286 16.983 8.51702 17.377C8.36882 17.5507 8.28741 17.7716 8.28741 18C8.28741 18.2284 8.36882 18.4493 8.51702 18.623C8.85202 19.017 9.05502 19.507 9.09702 20.023C9.11529 20.2503 9.21387 20.4637 9.37512 20.6249C9.53636 20.7861 9.74973 20.8847 9.97702 20.903C10.4931 20.9442 10.983 21.1472 11.377 21.483C11.5508 21.6312 11.7717 21.7126 12 21.7126C12.2284 21.7126 12.4493 21.6312 12.623 21.483C13.017 21.1472 13.507 20.9442 14.023 20.903C14.2503 20.8847 14.4637 20.7861 14.6249 20.6249C14.7862 20.4637 14.8848 20.2503 14.903 20.023C14.9442 19.5069 15.1472 19.017 15.483 18.623C15.6312 18.4493 15.7126 18.2284 15.7126 18C15.7126 17.7716 15.6312 17.5507 15.483 17.377C15.1472 16.983 14.9442 16.4931 14.903 15.977C14.8848 15.7497 14.7862 15.5363 14.6249 15.3751C14.4637 15.2139 14.2503 15.1153 14.023 15.097C13.507 15.0558 13.017 14.8528 12.623 14.517V14.516ZM12.988 16.452C13.0598 16.3837 13.1444 16.3302 13.2369 16.2947C13.3294 16.2593 13.4281 16.2425 13.5271 16.2454C13.6262 16.2483 13.7237 16.2708 13.814 16.3116C13.9043 16.3524 13.9857 16.4106 14.0533 16.4831C14.121 16.5555 14.1736 16.6406 14.2082 16.7334C14.2427 16.8263 14.2586 16.9251 14.2547 17.0241C14.2509 17.1232 14.2275 17.2204 14.1858 17.3104C14.1441 17.4003 14.0851 17.481 14.012 17.548L11.869 19.548C11.7301 19.6778 11.5471 19.75 11.357 19.75C11.1669 19.75 10.9839 19.6778 10.845 19.548L9.98802 18.748C9.8449 18.6117 9.76137 18.4244 9.75561 18.2268C9.74985 18.0292 9.82232 17.8373 9.95727 17.6929C10.0922 17.5485 10.2787 17.4631 10.4762 17.4555C10.6737 17.4478 10.8663 17.5185 11.012 17.652L11.357 17.974L12.988 16.452Z" fill="#017457"/>
</svg>
