<svg width="24" height="24" viewBox="0 0 24 24" fill="none" xmlns="http://www.w3.org/2000/svg">
<path fill-rule="evenodd" clip-rule="evenodd" d="M9.9451 1.25H14.0551C15.4231 1.25 16.5251 1.25 17.3921 1.367C18.2921 1.487 19.0501 1.747 19.6521 2.348C20.2541 2.95 20.5121 3.708 20.6341 4.608C20.7501 5.475 20.7501 6.578 20.7501 7.945V16.055C20.7501 17.422 20.7501 18.525 20.6341 19.392C20.5131 20.292 20.2541 21.05 19.6521 21.652C19.0501 22.254 18.2921 22.512 17.3921 22.634C16.5251 22.75 15.4221 22.75 14.0551 22.75H9.9451C8.5781 22.75 7.4751 22.75 6.6081 22.634C5.7081 22.512 4.9501 22.254 4.3481 21.652C3.7471 21.05 3.4881 20.292 3.3671 19.392C3.32682 19.0789 3.29947 18.7643 3.2851 18.449C3.24489 18.3221 3.23936 18.1868 3.2691 18.057C3.25262 17.3898 3.24628 16.7224 3.2501 16.055V7.945C3.2501 6.578 3.2501 5.475 3.3671 4.608C3.4871 3.708 3.7471 2.95 4.3491 2.348C4.9501 1.746 5.7091 1.488 6.6091 1.367C7.4751 1.25 8.5781 1.25 9.9451 1.25ZM4.7771 18.25C4.7921 18.603 4.8161 18.914 4.8531 19.192C4.9521 19.926 5.1331 20.314 5.4091 20.591C5.6861 20.868 6.0751 21.048 6.8091 21.147C7.5641 21.248 8.5651 21.25 10.0001 21.25H14.0001C15.4361 21.25 16.4371 21.248 17.1921 21.147C17.9261 21.048 18.3141 20.867 18.5921 20.591C18.8681 20.314 19.0481 19.926 19.1471 19.191C19.2301 18.576 19.2471 17.796 19.2491 16.75H13.7501V19.558C13.7501 19.669 13.7501 19.828 13.7301 19.964C13.7122 20.104 13.6628 20.2382 13.5858 20.3564C13.5087 20.4747 13.4059 20.574 13.2851 20.647C13.1671 20.7137 13.0363 20.7546 12.9013 20.767C12.7664 20.7794 12.6303 20.7631 12.5021 20.719C12.3721 20.679 12.2301 20.61 12.1241 20.56L12.1001 20.548L11.0001 20.026L9.9001 20.548L9.8761 20.56C9.7701 20.61 9.6281 20.678 9.4981 20.719C9.36993 20.7631 9.23385 20.7795 9.09886 20.7671C8.96388 20.7547 8.83307 20.7138 8.7151 20.647C8.59446 20.5739 8.49187 20.4745 8.41499 20.3563C8.33811 20.238 8.28893 20.1039 8.2711 19.964C8.25406 19.8294 8.24737 19.6936 8.2511 19.558V16.75H7.8981C6.9201 16.75 6.5781 16.756 6.3161 16.827C5.96328 16.9213 5.6387 17.1 5.37039 17.3477C5.10209 17.5955 4.89812 17.9048 4.7761 18.249L4.7771 18.25ZM9.7501 16.75V18.96L10.5001 18.603L10.5081 18.599C10.6601 18.5188 10.8283 18.4744 11.0001 18.469C11.2361 18.469 11.4431 18.574 11.4921 18.599L11.5011 18.603L12.2511 18.959V16.75H9.7511H9.7501ZM7.8981 15.25H7.7821C6.9641 15.25 6.4061 15.25 5.9271 15.378C5.50588 15.4908 5.10757 15.6763 4.7501 15.926V8C4.7501 6.565 4.7521 5.563 4.8531 4.808C4.9521 4.074 5.1331 3.686 5.4091 3.409C5.6861 3.132 6.0751 2.952 6.8091 2.853C7.5641 2.752 8.5651 2.75 10.0001 2.75H14.0001C15.4361 2.75 16.4371 2.752 17.1921 2.853C17.9261 2.952 18.3141 3.133 18.5921 3.409C18.8681 3.686 19.0481 4.074 19.1471 4.809C19.2491 5.563 19.2501 6.565 19.2501 8V15.25H7.8981ZM7.2501 7C7.2501 6.80109 7.32912 6.61032 7.46977 6.46967C7.61042 6.32902 7.80119 6.25 8.0001 6.25H16.0001C16.199 6.25 16.3898 6.32902 16.5304 6.46967C16.6711 6.61032 16.7501 6.80109 16.7501 7C16.7501 7.19891 16.6711 7.38968 16.5304 7.53033C16.3898 7.67098 16.199 7.75 16.0001 7.75H8.0001C7.80119 7.75 7.61042 7.67098 7.46977 7.53033C7.32912 7.38968 7.2501 7.19891 7.2501 7ZM7.2501 10.5C7.2501 10.3011 7.32912 10.1103 7.46977 9.96967C7.61042 9.82902 7.80119 9.75 8.0001 9.75H13.0001C13.199 9.75 13.3898 9.82902 13.5304 9.96967C13.6711 10.1103 13.7501 10.3011 13.7501 10.5C13.7501 10.6989 13.6711 10.8897 13.5304 11.0303C13.3898 11.171 13.199 11.25 13.0001 11.25H8.0001C7.80119 11.25 7.61042 11.171 7.46977 11.0303C7.32912 10.8897 7.2501 10.6989 7.2501 10.5Z" fill="#017457"/>
</svg>
