<svg width="24" height="24" viewBox="0 0 24 24" fill="none" xmlns="http://www.w3.org/2000/svg">
<path fill-rule="evenodd" clip-rule="evenodd" d="M11.943 1.25C9.634 1.25 7.825 1.25 6.413 1.44C4.969 1.634 3.829 2.04 2.934 2.934C2.039 3.829 1.634 4.969 1.44 6.414C1.25 7.825 1.25 9.634 1.25 11.943V12.057C1.25 14.366 1.25 16.175 1.44 17.587C1.634 19.031 2.04 20.171 2.934 21.066C3.829 21.961 4.969 22.366 6.414 22.56C7.825 22.75 9.634 22.75 11.943 22.75H12.057C14.366 22.75 16.175 22.75 17.587 22.56C19.031 22.366 20.171 21.96 21.066 21.066C21.961 20.171 22.366 19.031 22.56 17.586C22.75 16.175 22.75 14.366 22.75 12.057V11.943C22.75 9.634 22.75 7.825 22.56 6.413C22.366 4.969 21.96 3.829 21.066 2.934C20.171 2.039 19.031 1.634 17.586 1.44C16.175 1.25 14.366 1.25 12.057 1.25H11.943ZM6.25 2.982C5.185 3.165 4.508 3.482 3.995 3.995C3.425 4.565 3.098 5.335 2.926 6.614C2.752 7.914 2.75 9.622 2.75 12C2.75 14.378 2.752 16.086 2.926 17.386C3.098 18.665 3.426 19.436 3.995 20.006C4.565 20.575 5.335 20.902 6.614 21.074C7.914 21.248 9.622 21.25 12 21.25C14.378 21.25 16.086 21.248 17.386 21.074C18.665 20.902 19.436 20.574 20.006 20.005C20.575 19.435 20.902 18.665 21.074 17.386C21.248 16.086 21.25 14.378 21.25 12C21.25 9.622 21.248 7.914 21.074 6.614C20.902 5.335 20.574 4.564 20.005 3.994C19.492 3.481 18.815 3.165 17.75 2.982V8.83C17.75 9.298 17.75 9.681 17.733 9.983C17.715 10.281 17.679 10.589 17.556 10.864C17.3421 11.3455 16.966 11.7367 16.4932 11.9693C16.0204 12.202 15.481 12.2613 14.969 12.137C14.676 12.067 14.409 11.907 14.163 11.739C13.913 11.569 13.61 11.335 13.239 11.049L13.221 11.035C12.751 10.675 12.619 10.579 12.498 10.527C12.3408 10.4587 12.1713 10.4235 12 10.4235C11.8287 10.4235 11.6592 10.4587 11.502 10.527C11.381 10.579 11.249 10.674 10.779 11.035L10.761 11.05C10.391 11.335 10.086 11.569 9.837 11.74C9.59 11.907 9.324 12.066 9.031 12.137C8.51897 12.2613 7.97956 12.202 7.5068 11.9693C7.03404 11.7367 6.65792 11.3455 6.444 10.864C6.321 10.589 6.284 10.281 6.267 9.983C6.25 9.681 6.25 9.298 6.25 8.83V2.98V2.982ZM16.25 2.82C15.124 2.75 13.742 2.75 12 2.75C10.258 2.75 8.876 2.75 7.75 2.82V8.808C7.75 9.304 7.75 9.644 7.765 9.898C7.78 10.16 7.808 10.241 7.815 10.256C7.88618 10.4166 8.01146 10.547 8.16898 10.6247C8.32651 10.7024 8.50629 10.7223 8.677 10.681C8.693 10.677 8.774 10.649 8.991 10.501C9.201 10.358 9.471 10.151 9.864 9.848L9.931 9.796C10.301 9.511 10.59 9.289 10.904 9.152C11.2498 9.00171 11.6229 8.92416 12 8.92416C12.3771 8.92416 12.7502 9.00171 13.096 9.152C13.41 9.289 13.699 9.511 14.069 9.796L14.136 9.848C14.529 10.151 14.799 10.358 15.009 10.501C15.226 10.649 15.307 10.677 15.323 10.681C15.4937 10.7223 15.6735 10.7024 15.831 10.6247C15.9885 10.547 16.1138 10.4166 16.185 10.256C16.192 10.241 16.22 10.16 16.235 9.898C16.25 9.644 16.25 9.304 16.25 8.808V2.82Z" fill="#545F71"/>
</svg>
