<svg width="24" height="24" viewBox="0 0 24 24" fill="none" xmlns="http://www.w3.org/2000/svg">
<path fill-rule="evenodd" clip-rule="evenodd" d="M11.5 2.75C10.3509 2.75 9.21312 2.97633 8.15152 3.41605C7.08992 3.85578 6.12533 4.5003 5.31282 5.31282C4.5003 6.12533 3.85578 7.08992 3.41605 8.15152C2.97633 9.21312 2.75 10.3509 2.75 11.5C2.75 12.6491 2.97633 13.7869 3.41605 14.8485C3.85578 15.9101 4.5003 16.8747 5.31282 17.6872C6.12533 18.4997 7.08992 19.1442 8.15152 19.5839C9.21312 20.0237 10.3509 20.25 11.5 20.25C13.8206 20.25 16.0462 19.3281 17.6872 17.6872C19.3281 16.0462 20.25 13.8206 20.25 11.5C20.25 9.17936 19.3281 6.95376 17.6872 5.31282C16.0462 3.67187 13.8206 2.75 11.5 2.75ZM1.25 11.5C1.25 5.84 5.84 1.25 11.5 1.25C17.16 1.25 21.75 5.84 21.75 11.5C21.75 14.06 20.811 16.402 19.259 18.198L22.53 21.47C22.6037 21.5387 22.6628 21.6215 22.7038 21.7135C22.7448 21.8055 22.7668 21.9048 22.7686 22.0055C22.7704 22.1062 22.7518 22.2062 22.7141 22.2996C22.6764 22.393 22.6203 22.4778 22.549 22.549C22.4778 22.6203 22.393 22.6764 22.2996 22.7141C22.2062 22.7518 22.1062 22.7704 22.0055 22.7686C21.9048 22.7668 21.8055 22.7448 21.7135 22.7038C21.6215 22.6628 21.5387 22.6037 21.47 22.53L18.198 19.259C16.3383 20.8691 13.9598 21.7536 11.5 21.75C5.84 21.75 1.25 17.16 1.25 11.5Z" fill="#545F71" fill-opacity="0.5"/>
</svg>
