<svg width="24" height="24" viewBox="0 0 24 24" fill="none" xmlns="http://www.w3.org/2000/svg">
<path fill-rule="evenodd" clip-rule="evenodd" d="M12 2.75C9.54674 2.75 7.19397 3.72455 5.45925 5.45926C3.72454 7.19397 2.74999 9.54675 2.74999 12C2.74999 13.481 3.09799 14.879 3.71499 16.118C3.96299 16.616 4.05799 17.21 3.90199 17.795L3.30599 20.02C3.28097 20.1132 3.28092 20.2114 3.30584 20.3046C3.33077 20.3979 3.37979 20.4829 3.44799 20.5512C3.51619 20.6195 3.60116 20.6687 3.69437 20.6937C3.78757 20.7188 3.88574 20.7189 3.97899 20.694L6.20599 20.098C6.76878 19.954 7.36479 20.0205 7.88199 20.285C9.16119 20.9218 10.571 21.2522 12 21.25C13.3718 21.2503 14.7265 20.9454 15.966 20.3575C17.2054 19.7697 18.2986 18.9135 19.1663 17.8509C20.034 16.7884 20.6545 15.5462 20.9829 14.2143C21.3113 12.8824 21.3394 11.4941 21.065 10.15C21.0453 10.0535 21.0448 9.95402 21.0635 9.85731C21.0823 9.7606 21.1199 9.66852 21.1742 9.58634C21.2285 9.50416 21.2985 9.43349 21.3801 9.37835C21.4618 9.32322 21.5535 9.2847 21.65 9.265C21.7465 9.2453 21.846 9.24481 21.9427 9.26355C22.0394 9.28228 22.1315 9.31989 22.2136 9.37421C22.2958 9.42853 22.3665 9.49851 22.4216 9.58015C22.4768 9.66178 22.5153 9.75348 22.535 9.85C22.676 10.546 22.75 11.265 22.75 12C22.75 17.937 17.937 22.75 12 22.75C10.282 22.75 8.65599 22.346 7.21299 21.628C7.02294 21.5268 6.80251 21.4984 6.59299 21.548L4.36699 22.143C2.84299 22.551 1.44899 21.157 1.85699 19.633L2.45299 17.407C2.50264 17.1975 2.47419 16.9771 2.37299 16.787C1.63245 15.3 1.24798 13.6612 1.24999 12C1.24999 6.063 6.06299 1.25 12 1.25C12.735 1.25 13.454 1.324 14.15 1.465C14.3449 1.50478 14.5161 1.62037 14.6258 1.78634C14.7355 1.95231 14.7748 2.15507 14.735 2.35C14.6952 2.54493 14.5796 2.71608 14.4136 2.82579C14.2477 2.9355 14.0449 2.97478 13.85 2.935C13.2411 2.81167 12.6213 2.74969 12 2.75ZM15.25 5C15.25 4.00544 15.6451 3.05161 16.3483 2.34835C17.0516 1.64509 18.0054 1.25 19 1.25C19.9946 1.25 20.9484 1.64509 21.6516 2.34835C22.3549 3.05161 22.75 4.00544 22.75 5C22.75 5.99456 22.3549 6.94839 21.6516 7.65165C20.9484 8.35491 19.9946 8.75 19 8.75C18.0054 8.75 17.0516 8.35491 16.3483 7.65165C15.6451 6.94839 15.25 5.99456 15.25 5ZM19 2.75C18.7045 2.75 18.4119 2.8082 18.139 2.92127C17.866 3.03434 17.6179 3.20008 17.409 3.40901C17.2001 3.61794 17.0343 3.86598 16.9213 4.13896C16.8082 4.41194 16.75 4.70453 16.75 5C16.75 5.29547 16.8082 5.58806 16.9213 5.86104C17.0343 6.13402 17.2001 6.38206 17.409 6.59099C17.6179 6.79992 17.866 6.96566 18.139 7.07873C18.4119 7.1918 18.7045 7.25 19 7.25C19.5967 7.25 20.169 7.01295 20.591 6.59099C21.0129 6.16903 21.25 5.59674 21.25 5C21.25 4.40326 21.0129 3.83097 20.591 3.40901C20.169 2.98705 19.5967 2.75 19 2.75Z" fill="#545F71"/>
</svg>
