<svg width="14" height="14" viewBox="0 0 14 14" fill="none" xmlns="http://www.w3.org/2000/svg">
<path d="M5.33925 3.1545C6.07834 1.82917 6.44759 1.1665 7 1.1665C7.55242 1.1665 7.92167 1.82917 8.66075 3.1545L8.85209 3.4975C9.06209 3.87434 9.16709 4.06275 9.33042 4.187C9.49375 4.31125 9.69792 4.35734 10.1063 4.4495L10.4773 4.5335C11.9123 4.85842 12.6292 5.02059 12.8001 5.5695C12.9704 6.11784 12.4816 6.69009 11.5033 7.834L11.2502 8.12975C10.9725 8.45467 10.8331 8.61742 10.7707 8.81809C10.7083 9.01934 10.7293 9.23634 10.7713 9.66975L10.8098 10.0647C10.9573 11.5913 11.0314 12.3543 10.5846 12.6932C10.1378 13.0327 9.46575 12.7229 8.12292 12.1046L7.77467 11.9448C7.39317 11.7686 7.20242 11.6811 7 11.6811C6.79759 11.6811 6.60684 11.7686 6.22475 11.9448L5.87767 12.1046C4.53425 12.7229 3.86225 13.0321 3.416 12.6938C2.96859 12.3543 3.04267 11.5913 3.19025 10.0647L3.22875 9.67034C3.27075 9.23634 3.29175 9.01934 3.22875 8.81867C3.16692 8.61742 3.0275 8.45467 2.74984 8.13034L2.49667 7.834C1.51842 6.69067 1.02959 6.11842 1.19992 5.5695C1.37084 5.02059 2.08834 4.85784 3.52334 4.5335L3.89434 4.4495C4.30209 4.35734 4.50567 4.31125 4.66959 4.187C4.83292 4.06275 4.93792 3.87434 5.14792 3.4975L5.33925 3.1545Z" fill="#FFC61B"/>
</svg>
