<svg width="72" height="72" viewBox="0 0 72 72" fill="none" xmlns="http://www.w3.org/2000/svg">
<g opacity="0.3">
<path d="M34.6315 41.4356C45.7827 41.4356 54.8571 32.2964 54.8571 21.0652C54.8571 9.83396 45.782 0.696289 34.6315 0.696289C23.4817 0.696289 14.4121 9.83396 14.4121 21.0652C14.4121 32.2964 23.4817 41.4356 34.6315 41.4356ZM41.2926 16.4754H44.0619C45.1933 16.4754 46.1127 17.3932 46.1127 18.5278C46.1127 19.6624 45.1933 20.5802 44.0619 20.5802H41.2926C40.158 20.5802 39.2402 19.6624 39.2402 18.5278C39.2402 17.3932 40.1588 16.4754 41.2926 16.4754ZM25.5571 16.4754H28.3279C29.4609 16.4754 30.3803 17.3932 30.3803 18.5278C30.3803 19.6624 29.4609 20.5802 28.3279 20.5802H25.5571C24.4209 20.5802 23.5047 19.6624 23.5047 18.5278C23.5047 17.3932 24.4209 16.4754 25.5571 16.4754Z" fill="#4F5E7B"/>
<path d="M38.8852 31.3778C36.5769 33.038 33.4087 32.9753 31 31.2202" stroke="white" stroke-width="3" stroke-linecap="round"/>
<path d="M51.8814 38.3C47.4727 42.7664 41.3701 45.5388 34.6314 45.5388C27.9599 45.5388 21.9119 42.8186 17.512 38.429C12.0954 41.0408 9.41797 44.9193 9.41797 50.2908V64.2517C12.1318 65.755 18.7273 71.2428 34.9621 71.2428C51.3441 71.2428 58.1699 65.8761 60.2049 64.4234V50.2877C60.2049 44.8141 57.4523 40.8936 51.8814 38.3Z" fill="#4F5E7B"/>
</g>
</svg>
