<svg width="72" height="72" viewBox="0 0 72 72" fill="none" xmlns="http://www.w3.org/2000/svg">
<path d="M30.3751 44.3084C25.8707 43.3067 21.8371 41.0478 18.6541 37.9106C13.4725 40.4528 10.9121 44.2047 10.9121 49.3784V66.9377C13.4028 68.0968 19.8211 70.7055 28.7467 71.6589L26.6603 69.9902C26.002 69.4648 25.6911 68.6135 25.8628 67.7883L30.3751 44.3084Z" fill="#4F5E7B" fill-opacity="0.3"/>
<path d="M35.6117 40.414C46.5169 40.414 55.3919 31.4773 55.3919 20.4961C55.3919 9.51496 46.5169 0.579834 35.6117 0.579834C24.7128 0.579834 15.8457 9.51496 15.8457 20.4961C15.8457 31.4773 24.712 40.414 35.6117 40.414Z" fill="#4F5E7B" fill-opacity="0.3"/>
<path d="M34.7945 45.0813L30.5322 67.3459L35.7953 71.5543L41.0482 67.3491L36.7226 45.0813H34.7945Z" fill="#4F5E7B" fill-opacity="0.3"/>
<path d="M52.5951 37.8955C49.4754 40.9773 45.528 43.2037 41.1289 44.2378L45.7203 67.7826C45.8936 68.611 45.5842 69.4624 44.9275 69.9909L42.9526 71.5701C48.4571 70.9134 54.422 69.475 60.6741 66.8553V49.3783C60.6741 44.1983 58.0022 40.4416 52.5951 37.8955Z" fill="#4F5E7B" fill-opacity="0.3"/>
</svg>
