<svg width="24" height="24" viewBox="0 0 24 24" fill="none" xmlns="http://www.w3.org/2000/svg">
<path d="M12 16C13.6569 16 15 14.6569 15 13C15 11.3431 13.6569 10 12 10C10.3431 10 9 11.3431 9 13C9 14.6569 10.3431 16 12 16Z" stroke="#4F5E7B" stroke-width="1.5"/>
<path d="M10 20H14C16.809 20 18.213 20 19.222 19.326C19.6589 19.034 20.034 18.6589 20.326 18.222C21 17.213 21 15.81 21 13C21 10.191 21 8.787 20.326 7.778C20.0341 7.34106 19.6589 6.96591 19.222 6.674C18.213 6 16.81 6 14 6H10C7.191 6 5.787 6 4.778 6.674C4.34106 6.96591 3.96591 7.34106 3.674 7.778C3 8.787 3 10.19 3 12.998V13C3 15.809 3 17.213 3.674 18.222C3.96591 18.6589 4.34106 19.0341 4.778 19.326C5.787 20 7.19 20 10 20Z" stroke="#4F5E7B" stroke-width="1.5"/>
<path d="M18 10H17.5M14.5 3.5H9.5" stroke="#4F5E7B" stroke-width="1.5" stroke-linecap="round"/>
</svg>
