<svg width="64" height="64" viewBox="0 0 64 64" fill="none" xmlns="http://www.w3.org/2000/svg">
<path opacity="0.5" fill-rule="evenodd" clip-rule="evenodd" d="M8 38C8.53043 38 9.03914 38.2107 9.41421 38.5858C9.78929 38.9609 10 39.4696 10 40C10 43.8267 10.0053 46.496 10.2747 48.512C10.5387 50.4693 11.0213 51.504 11.7573 52.2427C12.496 52.9813 13.5307 53.4613 15.4907 53.7253C17.5013 53.9947 20.1733 54 24 54H40C43.8267 54 46.496 53.9947 48.512 53.7253C50.4693 53.4613 51.504 52.9787 52.2427 52.2427C52.9813 51.504 53.4613 50.4693 53.7253 48.5093C53.9947 46.496 54 43.8267 54 40C54 39.4696 54.2107 38.9609 54.5858 38.5858C54.9609 38.2107 55.4696 38 56 38C56.5304 38 57.0391 38.2107 57.4142 38.5858C57.7893 38.9609 58 39.4696 58 40V40.1467C58 43.792 58 46.7333 57.6907 49.0453C57.3653 51.4453 56.6773 53.4667 55.072 55.072C53.4667 56.6773 51.4453 57.3653 49.0453 57.6907C46.7333 58 43.792 58 40.1467 58H23.8533C20.208 58 17.2667 58 14.9547 57.6907C12.5547 57.3653 10.5333 56.6773 8.928 55.072C7.32267 53.4667 6.63467 51.4453 6.312 49.0453C6 46.7333 6 43.792 6 40.1467V40C6 39.4696 6.21071 38.9609 6.58579 38.5858C6.96086 38.2107 7.46957 38 8 38Z" fill="#F3C95B"/>
<path fill-rule="evenodd" clip-rule="evenodd" d="M32.0004 6C32.2779 6.00022 32.5523 6.05818 32.8062 6.1702C33.0601 6.28222 33.2879 6.44584 33.4751 6.65067L44.1417 18.3173C44.3231 18.5104 44.4643 18.7376 44.5571 18.9857C44.6499 19.2339 44.6925 19.4979 44.6824 19.7627C44.6723 20.0274 44.6098 20.2874 44.4984 20.5278C44.3869 20.7681 44.2289 20.9839 44.0333 21.1627C43.8378 21.3414 43.6087 21.4795 43.3594 21.569C43.1101 21.6585 42.8454 21.6975 42.5809 21.6839C42.3163 21.6702 42.0571 21.6042 41.8183 21.4895C41.5795 21.3749 41.3658 21.2139 41.1897 21.016L34.0004 13.1493V42.6667C34.0004 43.1971 33.7897 43.7058 33.4146 44.0809C33.0395 44.456 32.5308 44.6667 32.0004 44.6667C31.47 44.6667 30.9613 44.456 30.5862 44.0809C30.2111 43.7058 30.0004 43.1971 30.0004 42.6667V13.152L22.8111 21.0187C22.4528 21.4105 21.9537 21.6439 21.4233 21.6677C20.8929 21.6915 20.3749 21.5036 19.9831 21.1453C19.5913 20.7871 19.3578 20.2879 19.334 19.7576C19.3103 19.2272 19.4982 18.7091 19.8564 18.3173L30.5231 6.65067C30.7106 6.44551 30.9388 6.28169 31.1932 6.16966C31.4475 6.05763 31.7225 5.99985 32.0004 6Z" fill="#F3C95B"/>
</svg>
